<?xml version="1.0" encoding="UTF-8"?>
<!DOCTYPE svg PUBLIC "-//W3C//DTD SVG 1.1//EN" "http://www.w3.org/Graphics/SVG/1.1/DTD/svg11.dtd">
<svg xmlns="http://www.w3.org/2000/svg" version="1.1" width="4167px" height="4167px" style="shape-rendering:geometricPrecision; text-rendering:geometricPrecision; image-rendering:optimizeQuality; fill-rule:evenodd; clip-rule:evenodd" xmlns:xlink="http://www.w3.org/1999/xlink">
<g><path style="opacity:0.983" fill="#01b6ed" d="M 1581.5,1594.5 C 1602.5,1594.5 1623.5,1594.5 1644.5,1594.5C 1644.5,1919.83 1644.5,2245.17 1644.5,2570.5C 1623.5,2570.5 1602.5,2570.5 1581.5,2570.5C 1581.5,2245.17 1581.5,1919.83 1581.5,1594.5 Z"/></g>
<g><path style="opacity:0.975" fill="#16245b" d="M 464.5,1836.5 C 478.167,1836.5 491.833,1836.5 505.5,1836.5C 505.333,1920.17 505.5,2003.83 506,2087.5C 511.026,2157.19 548.526,2194.02 618.5,2198C 647.797,2200.67 676.463,2197.67 704.5,2189C 738.915,2175.58 760.081,2150.74 768,2114.5C 769.28,2107.88 770.28,2101.21 771,2094.5C 771.5,2008.5 771.667,1922.5 771.5,1836.5C 785.5,1836.5 799.5,1836.5 813.5,1836.5C 813.667,1919.83 813.5,2003.17 813,2086.5C 813.144,2117.47 805.81,2146.47 791,2173.5C 773.057,2200.74 748.224,2218.57 716.5,2227C 682.706,2235.79 648.372,2238.79 613.5,2236C 581.011,2234.63 550.678,2225.96 522.5,2210C 494.722,2191.32 477.222,2165.49 470,2132.5C 467.433,2120.96 465.766,2109.3 465,2097.5C 464.5,2010.5 464.333,1923.5 464.5,1836.5 Z"/></g>
<g><path style="opacity:0.974" fill="#16245b" d="M 899.5,1836.5 C 919.743,1836.17 939.909,1836.51 960,1837.5C 1017.24,1949.66 1074.74,2061.66 1132.5,2173.5C 1190.26,2061.66 1247.76,1949.66 1305,1837.5C 1324.42,1836.51 1343.92,1836.17 1363.5,1836.5C 1363.5,1966.83 1363.5,2097.17 1363.5,2227.5C 1349.83,2227.5 1336.17,2227.5 1322.5,2227.5C 1322.67,2115.5 1322.5,2003.5 1322,1891.5C 1264.74,2003.01 1207.74,2114.68 1151,2226.5C 1144.58,2227.16 1138.08,2227.49 1131.5,2227.5C 1124.92,2227.49 1118.42,2227.16 1112,2226.5C 1055.59,2114.68 998.922,2003.01 942,1891.5C 941.5,2003.5 941.333,2115.5 941.5,2227.5C 927.5,2227.5 913.5,2227.5 899.5,2227.5C 899.5,2097.17 899.5,1966.83 899.5,1836.5 Z"/></g>
<g><path style="opacity:0.989" fill="#16245b" d="M 1839.5,1836.5 C 1891.84,1836.17 1944.17,1836.5 1996.5,1837.5C 2034.94,1930.05 2073.11,2022.72 2111,2115.5C 2149.53,2022.91 2187.86,1930.25 2226,1837.5C 2278.09,1836.5 2330.26,1836.17 2382.5,1836.5C 2382.5,1966.83 2382.5,2097.17 2382.5,2227.5C 2348.17,2227.5 2313.83,2227.5 2279.5,2227.5C 2279.67,2123.5 2279.5,2019.5 2279,1915.5C 2238,2019.17 2197,2122.83 2156,2226.5C 2126.23,2227.83 2096.4,2227.83 2066.5,2226.5C 2025.39,2123.28 1984.56,2019.95 1944,1916.5C 1943.5,2020.17 1943.33,2123.83 1943.5,2227.5C 1908.83,2227.5 1874.17,2227.5 1839.5,2227.5C 1839.5,2097.17 1839.5,1966.83 1839.5,1836.5 Z"/></g>
<g><path style="opacity:0.987" fill="#16245b" d="M 2469.5,1836.5 C 2591.17,1836.5 2712.83,1836.5 2834.5,1836.5C 2834.5,1861.5 2834.5,1886.5 2834.5,1911.5C 2748.5,1911.5 2662.5,1911.5 2576.5,1911.5C 2576.5,1938.17 2576.5,1964.83 2576.5,1991.5C 2657.83,1991.5 2739.17,1991.5 2820.5,1991.5C 2820.5,2015.5 2820.5,2039.5 2820.5,2063.5C 2739.17,2063.5 2657.83,2063.5 2576.5,2063.5C 2576.5,2092.83 2576.5,2122.17 2576.5,2151.5C 2663.17,2151.5 2749.83,2151.5 2836.5,2151.5C 2836.5,2176.83 2836.5,2202.17 2836.5,2227.5C 2714.17,2227.5 2591.83,2227.5 2469.5,2227.5C 2469.5,2097.17 2469.5,1966.83 2469.5,1836.5 Z"/></g>
<g><path style="opacity:0.985" fill="#16245b" d="M 2896.5,1836.5 C 3023.17,1836.5 3149.83,1836.5 3276.5,1836.5C 3276.67,1859.5 3276.5,1882.5 3276,1905.5C 3190.83,1987.33 3105.67,2069.17 3020.5,2151C 3105.83,2151.5 3191.17,2151.67 3276.5,2151.5C 3276.5,2176.83 3276.5,2202.17 3276.5,2227.5C 3143.83,2227.5 3011.17,2227.5 2878.5,2227.5C 2878.33,2204.5 2878.5,2181.5 2879,2158.5C 2964.5,2076.33 3050,1994.17 3135.5,1912C 3055.83,1911.5 2976.17,1911.33 2896.5,1911.5C 2896.5,1886.5 2896.5,1861.5 2896.5,1836.5 Z"/></g>
<g><path style="opacity:0.986" fill="#16245b" d="M 3334.5,1836.5 C 3456.17,1836.5 3577.83,1836.5 3699.5,1836.5C 3699.5,1861.5 3699.5,1886.5 3699.5,1911.5C 3613.5,1911.5 3527.5,1911.5 3441.5,1911.5C 3441.5,1938.17 3441.5,1964.83 3441.5,1991.5C 3523.17,1991.5 3604.83,1991.5 3686.5,1991.5C 3686.5,2015.5 3686.5,2039.5 3686.5,2063.5C 3604.83,2063.5 3523.17,2063.5 3441.5,2063.5C 3441.5,2092.83 3441.5,2122.17 3441.5,2151.5C 3528.17,2151.5 3614.83,2151.5 3701.5,2151.5C 3701.5,2176.83 3701.5,2202.17 3701.5,2227.5C 3579.17,2227.5 3456.83,2227.5 3334.5,2227.5C 3334.5,2097.17 3334.5,1966.83 3334.5,1836.5 Z"/></g>
</svg>
